# xmcd
#
# Track frame offsets: 
#        210
#        13616
#        26743
#        48726
#        59562
#        75391
#        83773
#        100330
#        112364
#        126040
#        140410
#        153354
#        180166
#
# Disc length: 2665 seconds
#
# Revision: 0
# Processed by: cddbd v1.5.2PL0 Copyright (c) Steve Scherf et al.
# Submitted via: ExactAudioCopy v0.95b4
#
DISCID=a70a670d
DTITLE=Whils - Rustic Stomp
DYEAR=2000
DGENRE=Country
TTITLE0=The girl who broke my heart
TTITLE1=The sailors dance
TTITLE2=Trip to berlin
TTITLE3=Full gallop
TTITLE4=Trip to wigan
TTITLE5=Wild foals
TTITLE6=The cork hornpipe
TTITLE7=The king of the fairies
TTITLE8=Smokey house
TTITLE9=Lullaby of reejwijk
TTITLE10=Trip to amsterdam
TTITLE11=Jackie's law
TTITLE12=The arkansas traveller
EXTD=
EXTT0=
EXTT1=
EXTT2=
EXTT3=
EXTT4=
EXTT5=
EXTT6=
EXTT7=
EXTT8=
EXTT9=
EXTT10=
EXTT11=
EXTT12=
PLAYORDER=
